# File created by Blade
# Date/Time:  Mon Nov 18 18:33:23 2013
# Frame Rate: 100.000 fps
#------------------------------------------------------
:FULLY-SPECIFIED
:DEGREES
85
root 54.321474 -0.757282 50.886730 -3.942889 5.078333 -123.864508
Spine 10.282231 -0.958995 -1.188420
Spine1 2.695773 1.342393 -2.931541
Spine2 0.625487 -2.761949 -2.502117
NeckDummy 0.002650 -0.016380 -0.016123 -1.215772 2.092066 -0.853733
Neck 15.841176 -1.980383 28.975071
Head -0.371692 0.290226 0.241992 -34.494723 -5.253538 -1.062953
LeftShoulderDummy -0.065932 -0.012375 0.013268 -1.197856 1.975297 -0.682982
LeftShoulder 8.347470 -4.258086 14.527895
LeftArm 11.634914 44.142497 20.621051
LeftForeArm 90.556675
LeftForeArmRoll -32.015556
LeftHand -9.345905 5.029044 -2.830461
LeftHandThumb1 15.918101 12.584538
LeftHandIndex1 15.350184 42.431661
LeftHandPinky1 13.962525 47.702918
RightShoulderDummy -0.047252 0.019174 0.073286 -1.243359 -2.096396 0.862552
RightShoulder 6.840078 4.691389 19.151795
RightArm -50.864263 64.167522 -11.012433
RightForeArm 113.659851
RightForeArmRoll 5.207713
RightHand -17.715841 -15.094411 11.529002
RightHandThumb1 -0.110498 13.094170
RightHandIndex1 12.973457 61.041593
RightHandPinky1 18.351686 68.560727
LeftUpLeg 10.114648 17.208638 -23.524511
LeftLeg 44.670061
LeftFoot 0.405523 -1.080274 -0.490405 -7.978457 13.568957 -11.660142
LeftToeBase -2.758251
RightUpLeg 20.206536 15.533208 -14.630230
RightLeg 46.099893
RightFoot -0.360573 0.358332 0.366994 -3.754011 -0.626650 -26.017174
RightToeBase -1.605016
86
root 54.373315 -0.846960 50.882256 -3.747320 5.029643 -123.870212
Spine 10.284068 -0.925563 -1.199894
Spine1 2.698346 1.363360 -2.953630
Spine2 0.655803 -2.823162 -2.469845
NeckDummy 0.002528 -0.018795 -0.016882 -1.210079 2.072611 -0.862610
Neck 15.565760 -1.978064 29.005163
Head -0.374799 0.293978 0.245364 -34.616302 -5.237372 -1.113882
LeftShoulderDummy -0.067297 -0.014999 0.012381 -1.193039 1.955353 -0.688195
LeftShoulder 8.165249 -4.248496 14.422116
LeftArm 11.925048 44.421543 20.632449
LeftForeArm 90.500486
LeftForeArmRoll -32.197113
LeftHand -9.365835 5.066443 -2.756727
LeftHandThumb1 15.933694 12.273856
LeftHandIndex1 15.220225 42.469149
LeftHandPinky1 13.943285 47.747425
RightShoulderDummy -0.047975 0.017037 0.071505 -1.238722 -2.075735 0.870345
RightShoulder 6.722492 4.589881 19.082371
RightArm -50.640329 64.256804 -10.885052
RightForeArm 113.783442
RightForeArmRoll 5.030094
RightHand -17.659909 -15.120454 11.416784
RightHandThumb1 -0.392278 12.924385
RightHandIndex1 13.022116 60.618562
RightHandPinky1 18.385803 68.282279
LeftUpLeg 9.818067 17.465204 -23.972154
LeftLeg 44.584648
LeftFoot 0.391827 -1.076238 -0.456263 -7.899753 13.986471 -11.691851
LeftToeBase -2.966852
RightUpLeg 20.139312 15.523855 -15.203367
RightLeg 46.729417
RightFoot -0.356136 0.354476 0.375116 -3.513368 -0.586197 -26.335287
RightToeBase -1.542041
87
root 54.420793 -0.934321 50.878267 -3.573363 4.939282 -123.835619
Spine 10.338169 -0.904876 -1.186270
Spine1 2.704410 1.382702 -2.914175
Spine2 0.569716 -2.719879 -2.652278
NeckDummy 0.003347 -0.019753 -0.014097 -1.193885 2.197942 -0.854206
Neck 15.453576 -2.019055 28.916425
Head -0.372163 0.300606 0.248436 -34.726587 -5.239036 -1.068697
LeftShoulderDummy -0.066383 -0.015772 0.012158 -1.176378 2.080468 -0.678420
LeftShoulder 8.179340 -4.400134 14.329623
LeftArm 12.330817 44.597173 20.786127
LeftForeArm 90.436131
LeftForeArmRoll -32.216234
LeftHand -9.421135 5.096147 -2.878692
LeftHandThumb1 16.180729 12.540967
LeftHandIndex1 15.165555 42.615769
LeftHandPinky1 13.942984 47.758392
RightShoulderDummy -0.046858 0.015909 0.075857 -1.223135 -2.199855 0.861227
RightShoulder 6.759858 4.610766 19.080460
RightArm -49.984680 64.376964 -10.405603
RightForeArm 113.846981
RightForeArmRoll 5.243942
RightHand -17.661599 -15.131175 11.581748
RightHandThumb1 0.063473 12.859087
RightHandIndex1 12.716465 60.841577
RightHandPinky1 17.999713 68.424812
LeftUpLeg 9.528201 17.721607 -24.353784
LeftLeg 44.315627
LeftFoot 0.405907 -1.065162 -0.457666 -8.319918 14.054901 -11.836994
LeftToeBase -2.471333
RightUpLeg 20.007611 15.434238 -15.767069
RightLeg 47.373207
RightFoot -0.360967 0.352776 0.379797 -3.246717 -0.412105 -26.632042
RightToeBase -1.474953
88
root 54.465089 -1.016799 50.871356 -3.387379 4.846873 -123.881515
Spine 10.334629 -0.877390 -1.176078
Spine1 2.711765 1.392899 -2.881600
Spine2 0.588588 -2.715698 -2.612219
NeckDummy 0.003413 -0.021760 -0.014588 -1.188456 2.169388 -0.852597
Neck 15.266489 -1.967654 28.852193
Head -0.370110 0.305897 0.247219 -34.740052 -5.212512 -1.070007
LeftShoulderDummy -0.066698 -0.017850 0.012139 -1.170607 2.051350 -0.674375
LeftShoulder 8.110600 -4.421981 14.283954
LeftArm 12.769944 44.898462 21.008416
LeftForeArm 90.316962
LeftForeArmRoll -32.472216
LeftHand -9.421241 5.153476 -2.950344
LeftHandThumb1 16.250924 12.296946
LeftHandIndex1 15.142120 42.556764
LeftHandPinky1 14.006654 47.681250
RightShoulderDummy -0.047148 0.013662 0.074379 -1.217859 -2.170265 0.857981
RightShoulder 6.782826 4.542685 19.080436
RightArm -49.289099 64.525791 -9.764860
RightForeArm 113.841718
RightForeArmRoll 5.275761
RightHand -17.658918 -15.322176 11.548492
RightHandThumb1 -0.051754 12.971959
RightHandIndex1 12.775334 60.909187
RightHandPinky1 18.203220 68.533951
LeftUpLeg 9.295071 18.000226 -24.639775
LeftLeg 43.975791
LeftFoot 0.383940 -1.064636 -0.438486 -8.022632 13.822120 -11.801363
LeftToeBase -3.016386
RightUpLeg 19.663354 15.262553 -16.387028
RightLeg 48.043943
RightFoot -0.358993 0.354507 0.374881 -2.967744 -0.118281 -26.863547
RightToeBase -1.616708
89
root 54.497442 -1.094222 50.863431 -3.227573 4.772977 -123.879883
Spine 10.344655 -0.859567 -1.195890
Spine1 2.708508 1.408741 -2.919976
Spine2 0.593311 -2.743112 -2.559622
NeckDummy 0.003397 -0.023999 -0.014801 -1.201480 2.133784 -0.855680
Neck 15.135183 -1.895420 28.820311
Head -0.364311 0.310117 0.244267 -34.710845 -5.127347 -1.045338
LeftShoulderDummy -0.067291 -0.020353 0.013001 -1.183525 2.015882 -0.674684
LeftShoulder 8.071001 -4.455405 14.365704
LeftArm 13.168384 45.152522 21.307201
LeftForeArm 90.192817
LeftForeArmRoll -32.726343
LeftHand -9.460077 5.139237 -3.209269
LeftHandThumb1 16.264877 12.408067
LeftHandIndex1 15.209735 42.643231
LeftHandPinky1 14.556953 47.703685
RightShoulderDummy -0.047551 0.011238 0.073881 -1.230587 -2.133622 0.859298
RightShoulder 6.758782 4.498518 19.070634
RightArm -48.804216 64.673477 -9.315196
RightForeArm 113.768062
RightForeArmRoll 5.266681
RightHand -17.632603 -15.488906 11.599551
RightHandThumb1 -0.089664 12.964224
RightHandIndex1 12.978004 60.829239
RightHandPinky1 18.252846 68.650745
LeftUpLeg 9.080073 18.193672 -24.823948
LeftLeg 43.430283
LeftFoot 0.407394 -1.051406 -0.437695 -9.128718 13.515571 -11.811160
LeftToeBase -2.411589
RightUpLeg 19.354756 15.126783 -16.939802
RightLeg 48.697157
RightFoot -0.364125 0.360108 0.371050 -2.828630 0.177731 -27.167853
RightToeBase -1.481346
90
root 54.524865 -1.167488 50.859509 -3.076006 4.719785 -123.899457
Spine 10.349842 -0.877856 -1.198024
Spine1 2.707867 1.409603 -2.925427
Spine2 0.524578 -2.709400 -2.606259
NeckDummy 0.003623 -0.024235 -0.012691 -1.199315 2.163129 -0.851682
Neck 15.207591 -1.787888 28.759973
Head -0.358502 0.314866 0.244109 -34.782637 -5.033235 -1.003510
LeftShoulderDummy -0.066598 -0.020095 0.015126 -1.179814 2.043641 -0.669882
LeftShoulder 8.044303 -4.455592 14.323970
LeftArm 13.544909 45.549639 21.443448
LeftForeArm 90.048750
LeftForeArmRoll -33.019311
LeftHand -9.404243 5.014493 -3.336823
LeftHandThumb1 16.536542 12.606644
LeftHandIndex1 15.177415 43.066939
LeftHandPinky1 14.488038 47.937769
RightShoulderDummy -0.046417 0.010715 0.076636 -1.227838 -2.163815 0.857673
RightShoulder 6.694796 4.564102 18.964239
RightArm -48.537137 64.924287 -9.087879
RightForeArm 113.621925
RightForeArmRoll 5.168125
RightHand -17.697845 -15.521783 11.412701
RightHandThumb1 -0.591083 13.052580
RightHandIndex1 13.579755 60.049824
RightHandPinky1 18.556464 68.389809
LeftUpLeg 8.900215 18.344474 -24.929890
LeftLeg 42.805409
LeftFoot 0.412920 -1.056226 -0.440534 -10.036019 12.960968 -11.334759
LeftToeBase -2.762226
RightUpLeg 19.061231 15.029906 -17.489735
RightLeg 49.346229
RightFoot -0.362626 0.366018 0.366531 -2.539315 0.449774 -27.419914
RightToeBase -1.472037
